<?xml version="1.0" encoding="utf-8"?>
<!DOCTYPE svg PUBLIC "-//W3C//DTD SVG 20010904//EN" "http://www.w3.org/TR/2001/REC-SVG-20010904/DTD/svg10.dtd">
<svg version="1.0" xmlns="http://www.w3.org/2000/svg" width="139pt" height="143pt" viewBox="0 0 139 143" preserveAspectRatio="xMidYMid meet">
<g fill="#141311FF">
<path d="M 71.64 35.50 C 70.82 34.67 69.82 34.00 69.43 34.00 C 68.31 34.00 44.11 19.57 44.05 18.87 C 43.96 17.70 49.43 17.13 58.00 17.41 C 64.84 17.64 68.06 18.33 74.50 20.94 C 78.90 22.72 82.95 24.53 83.50 24.96 C 84.05 25.39 86.30 26.31 88.50 27.02 C 90.70 27.72 94.07 29.13 95.99 30.15 L 99.47 32.00 L 86.99 32.20 L 74.50 32.40 L 86.50 32.95 C 93.10 33.25 98.99 33.17 99.58 32.77 C 100.18 32.36 101.53 32.69 102.58 33.49 C 104.29 34.78 102.93 34.94 90.31 34.97 C 81.96 34.99 75.86 35.41 75.50 36.00 C 74.63 37.41 73.39 37.24 71.64 35.50Z"/></g>
<g fill="#DF0D0FFF">
<path d="M 21.29 93.10 C 14.89 88.46 10.09 82.99 9.01 79.10 C 6.46 69.93 8.90 61.88 16.09 55.74 C 18.52 53.67 21.62 50.91 23.00 49.62 C 25.94 46.86 30.00 45.33 30.00 46.98 C 30.00 49.24 27.04 53.61 22.59 57.95 C 17.71 62.70 15.91 66.63 15.82 72.71 C 15.77 76.65 18.29 84.00 19.70 84.00 C 20.14 84.00 22.03 86.25 23.91 89.00 C 25.78 91.75 27.69 94.00 28.16 94.00 C 28.62 94.00 29.00 94.45 29.00 95.00 C 29.00 96.90 25.28 95.99 21.29 93.10Z"/></g>
<g fill="#141311FF">
<path d="M 64.47 49.96 C 63.46 48.85 62.06 48.15 61.36 48.41 C 60.64 48.69 60.31 48.35 60.60 47.61 C 60.87 46.89 58.20 43.79 54.54 40.58 C 50.08 36.66 48.00 34.11 48.00 32.55 C 48.00 31.30 46.66 28.75 45.02 26.89 C 40.57 21.84 41.23 20.61 46.75 23.68 C 50.73 25.89 71.97 38.77 72.74 39.44 C 73.43 40.04 68.34 52.00 67.40 52.00 C 66.80 52.00 65.48 51.08 64.47 49.96Z"/></g>
<g fill="#B028ACFF">
<path d="M 61.50 133.63 C 57.96 132.03 42.39 117.28 43.29 116.38 C 43.63 116.04 45.41 117.28 47.26 119.13 C 53.54 125.46 63.08 131.25 64.64 129.69 C 65.82 128.51 63.75 127.00 60.97 127.00 C 58.75 127.00 58.20 126.63 58.66 125.44 C 59.03 124.48 59.87 124.13 60.88 124.54 C 61.77 124.90 64.30 125.38 66.50 125.61 L 70.50 126.03 L 65.82 124.51 C 62.09 123.29 58.71 120.57 49.15 111.06 C 40.20 102.17 36.67 99.27 35.24 99.65 C 34.03 99.96 33.33 99.63 33.33 98.74 C 33.33 94.93 38.39 98.17 49.42 109.03 C 57.36 116.85 62.18 120.83 64.58 121.53 C 66.52 122.10 67.74 122.93 67.30 123.38 C 66.36 124.33 77.58 123.53 80.50 122.44 C 82.07 121.85 81.97 122.12 80.00 123.69 C 78.62 124.80 76.83 125.96 76.00 126.27 C 74.89 126.69 75.00 126.86 76.44 126.92 C 78.36 127.00 78.36 127.02 76.44 128.49 C 74.67 129.85 74.78 129.88 77.75 128.89 C 79.60 128.27 80.72 127.35 80.34 126.75 C 79.94 126.09 80.17 125.99 80.96 126.48 C 82.65 127.52 76.74 132.24 72.55 133.20 C 70.87 133.58 68.38 134.14 67.00 134.44 C 65.62 134.75 63.15 134.38 61.50 133.63Z"/></g>
<g fill="#141311FF">
<path d="M 77.31 48.54 C 77.65 44.90 78.20 41.49 78.53 40.96 C 78.85 40.43 82.98 40.00 87.70 40.00 L 96.28 40.00 L 95.64 46.21 C 95.28 49.62 94.65 52.72 94.24 53.09 C 93.83 53.46 89.72 54.08 85.10 54.46 L 76.70 55.16 L 77.31 48.54ZM 90.34 50.52 C 91.96 48.89 91.66 46.56 89.44 43.56 C 87.38 40.78 82.62 42.48 82.20 46.14 C 81.64 50.90 87.05 53.81 90.34 50.52ZM 83.36 48.49 C 82.76 46.93 84.56 44.00 86.12 44.00 C 86.61 44.00 87.00 44.90 87.00 46.00 C 87.00 47.10 87.45 48.00 88.00 48.00 C 88.55 48.00 89.00 48.45 89.00 49.00 C 89.00 50.61 83.99 50.15 83.36 48.49Z"/></g>
<g fill="#E512E3FF">
<path d="M 59.39 128.15 C 56.78 127.34 51.63 123.53 47.37 119.25 C 45.59 117.46 43.64 116.00 43.05 116.00 C 42.45 116.00 41.44 114.88 40.82 113.50 C 40.19 112.12 39.27 111.00 38.76 111.00 C 37.65 111.00 30.00 103.17 30.00 102.03 C 30.00 101.02 32.54 100.00 35.03 100.00 C 36.06 100.00 38.11 101.12 39.59 102.50 C 41.08 103.88 42.68 105.00 43.15 105.00 C 43.62 105.00 44.00 105.48 44.00 106.07 C 44.00 106.66 47.56 110.78 51.91 115.22 C 59.19 122.64 60.86 125.82 57.64 126.10 C 57.01 126.15 58.52 126.78 61.00 127.50 C 63.48 128.22 64.60 128.80 63.50 128.80 C 62.40 128.80 60.55 128.51 59.39 128.15Z"/></g>
<g fill="#10EF12FF">
<path d="M 124.01 75.85 C 122.35 73.57 121.00 70.75 120.99 69.60 C 120.98 65.28 118.83 59.99 115.89 57.05 C 113.72 54.88 113.04 53.44 113.50 52.01 C 114.12 50.03 116.51 49.24 117.17 50.79 C 117.35 51.23 119.27 52.91 121.43 54.54 C 127.22 58.91 131.00 65.39 130.99 70.95 C 130.96 80.94 128.79 82.46 124.01 75.85Z"/></g>
<g fill="#747173FF">
<path d="M 109.08 82.75 C 109.02 76.56 108.70 75.00 107.50 75.00 C 106.31 75.00 106.00 76.45 106.00 82.07 C 106.00 88.27 105.78 89.10 104.25 88.81 C 102.79 88.52 102.50 87.35 102.50 81.71 C 102.50 76.47 102.19 75.01 101.11 75.22 C 100.11 75.42 99.69 77.31 99.61 82.00 C 99.53 86.91 99.15 88.50 98.08 88.50 C 96.97 88.50 96.65 86.83 96.65 81.03 L 96.65 73.55 L 100.07 72.85 C 102.05 72.45 104.01 72.59 104.74 73.20 C 105.62 73.93 106.42 73.90 107.39 73.09 C 109.92 70.99 112.00 74.44 112.00 80.75 L 112.00 86.35 L 114.74 83.92 C 116.73 82.16 117.01 82.07 115.74 83.58 C 114.78 84.72 114.00 86.18 114.00 86.83 C 114.00 87.47 113.14 88.00 112.08 88.00 C 111.03 88.00 109.94 88.56 109.66 89.25 C 109.38 89.94 109.12 87.01 109.08 82.75Z"/></g>
<g fill="#747173FF">
<path d="M 77.00 60.50 C 77.00 59.50 76.00 59.00 74.02 59.00 C 71.95 59.00 70.55 58.24 69.41 56.50 C 68.51 55.12 67.32 54.00 66.76 54.00 C 66.18 54.00 66.26 54.61 66.96 55.45 C 67.62 56.25 67.96 57.71 67.70 58.70 C 67.30 60.22 67.21 60.18 67.12 58.42 C 67.05 57.28 65.88 55.29 64.50 54.00 C 63.12 52.71 62.00 51.05 62.00 50.33 C 62.00 49.60 61.44 49.11 60.75 49.25 C 60.06 49.39 59.61 48.94 59.75 48.25 C 59.89 47.56 59.19 47.00 58.20 47.00 C 57.21 47.00 54.65 45.20 52.50 43.00 C 50.35 40.80 48.14 39.00 47.58 39.00 C 47.03 39.00 44.56 40.91 42.09 43.25 C 39.62 45.59 38.16 46.76 38.84 45.85 C 39.78 44.60 39.79 44.10 38.91 43.80 C 38.05 43.52 38.11 43.00 39.12 41.91 C 39.88 41.09 40.98 39.56 41.57 38.52 C 42.96 36.06 45.00 35.39 45.00 37.39 C 45.00 38.29 45.57 38.72 46.38 38.41 C 48.15 37.73 46.89 31.45 44.51 29.11 C 43.07 27.68 42.74 27.67 41.69 29.00 C 41.03 29.82 39.60 31.16 38.50 31.96 C 37.40 32.76 37.97 31.83 39.77 29.89 C 41.56 27.95 42.91 26.15 42.77 25.88 C 42.62 25.60 43.74 26.65 45.25 28.21 C 46.76 29.76 48.00 31.94 48.00 33.04 C 48.00 34.19 50.26 37.15 53.25 39.91 C 64.53 50.34 67.53 52.95 68.27 52.97 C 68.70 52.99 69.48 54.12 70.00 55.50 C 70.77 57.51 71.64 58.00 74.48 58.00 C 77.33 58.00 78.00 58.38 78.00 60.00 C 78.00 61.10 77.78 62.00 77.50 62.00 C 77.22 62.00 77.00 61.33 77.00 60.50Z"/></g>
<g fill="#E3BE1DFF">
<path d="M 83.46 21.98 C 81.28 20.86 77.14 19.21 74.26 18.30 C 71.06 17.28 68.80 15.93 68.44 14.82 C 68.13 13.82 67.11 12.97 66.18 12.93 C 62.79 12.79 68.39 11.14 72.50 11.07 C 77.82 10.99 87.32 17.01 90.13 22.25 C 91.44 24.69 88.55 24.58 83.46 21.98Z"/></g>
<g fill="#747173FF">
<path d="M 37.04 87.07 C 35.73 84.63 35.70 78.92 36.98 75.57 C 37.98 72.92 41.12 72.16 43.86 73.89 C 45.66 75.03 46.45 82.79 45.11 86.25 C 44.28 88.40 43.40 89.00 41.06 89.00 C 39.13 89.00 37.70 88.32 37.04 87.07ZM 42.15 82.50 C 42.23 80.03 42.34 77.44 42.40 76.76 C 42.45 76.08 41.71 75.38 40.75 75.19 C 39.26 74.90 39.00 75.65 39.00 80.26 C 39.00 83.23 39.30 85.97 39.67 86.33 C 41.24 87.90 42.01 86.71 42.15 82.50Z"/></g>
<g fill="#1B15DAFF">
<path d="M 93.59 114.69 C 92.14 113.63 91.97 112.93 92.80 111.42 C 94.52 108.28 107.97 95.63 109.92 95.33 C 113.73 94.75 110.72 100.40 103.06 108.24 C 96.17 115.29 95.26 115.91 93.59 114.69Z"/></g>
<g fill="#9F2126FF">
<path d="M 23.74 46.91 C 31.70 38.81 34.63 36.45 36.92 36.30 C 41.34 35.99 40.63 39.49 35.12 45.25 C 30.12 50.48 28.91 51.07 29.74 47.89 C 30.22 46.05 29.98 45.86 27.90 46.49 C 26.58 46.88 25.05 47.72 24.50 48.35 C 23.95 48.98 21.25 51.26 18.50 53.41 C 15.08 56.08 16.74 54.02 23.74 46.91Z"/></g>
<g fill="#27218DFF">
<path d="M 103.02 108.72 C 106.54 105.90 112.13 98.02 111.42 96.87 C 110.90 96.03 111.20 95.86 112.39 96.32 C 113.48 96.74 113.86 96.59 113.44 95.90 C 113.07 95.31 111.91 95.05 110.86 95.33 C 109.57 95.66 110.62 93.90 114.08 89.91 C 116.90 86.65 119.60 83.75 120.07 83.45 C 121.45 82.60 122.28 87.61 121.12 89.78 C 120.54 90.85 120.39 92.09 120.79 92.53 C 121.18 92.96 120.96 93.01 120.29 92.63 C 119.56 92.21 118.50 93.03 117.59 94.72 C 115.92 97.83 103.77 110.02 102.39 109.97 C 101.90 109.95 102.19 109.39 103.02 108.72Z"/></g>
<g fill="#747173FF">
<path d="M 86.34 87.75 C 84.42 84.64 85.22 81.80 88.58 79.82 C 90.46 78.71 92.00 77.38 92.00 76.87 C 92.00 75.26 88.84 74.64 87.95 76.08 C 86.85 77.86 85.57 76.56 86.37 74.48 C 86.80 73.36 87.97 72.97 90.24 73.19 C 93.46 73.50 93.51 73.57 94.00 79.60 C 94.71 88.20 94.47 88.80 90.44 88.80 C 88.55 88.80 86.70 88.33 86.34 87.75ZM 91.29 84.26 C 91.58 82.75 91.59 81.15 91.32 80.71 C 90.44 79.29 88.00 82.16 88.00 84.62 C 88.00 87.93 90.65 87.64 91.29 84.26Z"/></g>
<g fill="#747173FF">
<path d="M 58.00 79.50 C 58.00 71.72 58.27 70.00 59.50 70.00 C 60.33 70.00 61.00 70.65 61.00 71.43 C 61.00 72.25 62.18 73.00 63.75 73.18 C 66.92 73.55 67.72 76.16 67.15 84.20 C 66.62 91.58 64.50 89.77 64.50 81.93 C 64.49 76.63 64.19 75.47 62.75 75.19 C 61.22 74.90 61.00 75.73 61.00 81.93 C 61.00 87.55 60.69 89.00 59.50 89.00 C 58.27 89.00 58.00 87.28 58.00 79.50Z"/></g>
<g fill="#141311FF">
<path d="M 102.74 50.88 C 101.62 50.25 101.15 49.10 101.44 47.70 C 101.69 46.49 102.15 43.45 102.48 40.95 C 103.06 36.44 103.09 36.41 106.53 36.81 C 109.59 37.17 110.00 37.56 110.00 40.08 C 110.00 42.55 107.14 49.10 105.16 51.19 C 104.80 51.57 103.71 51.43 102.74 50.88Z"/></g>
<g fill="#E54548FF">
<path d="M 24.58 89.01 C 16.82 81.04 14.82 76.36 16.14 69.27 C 16.59 66.87 17.31 64.29 17.73 63.54 C 19.39 60.63 31.20 48.87 31.83 49.50 C 32.20 49.86 31.15 51.37 29.50 52.85 C 23.44 58.28 18.94 64.73 18.15 69.14 C 17.24 74.21 19.04 80.82 22.06 83.55 C 23.13 84.52 24.00 85.86 24.00 86.53 C 24.00 87.20 25.89 89.36 28.21 91.33 C 30.53 93.30 32.18 95.15 31.89 95.44 C 31.60 95.73 28.31 92.84 24.58 89.01Z"/></g>
<g fill="#747173FF">
<path d="M 76.21 88.15 C 74.43 87.02 73.64 81.17 74.72 76.99 C 75.47 74.08 76.12 73.45 78.64 73.20 C 82.01 72.86 84.57 75.07 83.64 77.49 C 82.80 79.68 81.00 79.34 81.00 77.00 C 81.00 75.89 80.33 75.00 79.50 75.00 C 78.33 75.00 78.00 76.33 78.00 81.00 C 78.00 86.90 79.60 89.26 80.71 85.00 C 81.36 82.51 84.00 82.35 84.00 84.80 C 84.00 88.34 79.54 90.26 76.21 88.15Z"/></g>
<g fill="#747173FF">
<path d="M 48.25 87.85 C 47.56 87.16 47.00 86.02 47.00 85.30 C 47.00 83.50 49.66 83.66 50.36 85.50 C 51.17 87.60 53.00 87.37 53.00 85.17 C 53.00 84.16 51.62 82.10 49.94 80.60 C 45.34 76.50 47.50 71.91 53.35 73.37 C 56.14 74.07 57.07 77.00 54.50 77.00 C 53.67 77.00 53.00 76.55 53.00 76.00 C 53.00 75.45 52.33 75.00 51.50 75.00 C 49.15 75.00 49.73 76.74 53.05 79.70 C 55.40 81.79 56.03 83.11 55.80 85.46 C 55.55 88.03 55.03 88.55 52.50 88.80 C 50.84 88.96 48.93 88.53 48.25 87.85Z"/></g>
<g fill="#3CCF43FF">
<path d="M 126.18 81.03 C 124.95 79.36 123.39 78.30 122.63 78.59 C 121.07 79.19 120.03 76.24 120.01 71.20 C 120.00 67.11 118.10 63.38 114.12 59.60 C 112.45 58.00 111.35 56.24 111.69 55.69 C 112.03 55.14 111.84 54.98 111.27 55.33 C 110.70 55.69 109.67 55.31 108.99 54.49 C 108.13 53.46 108.10 53.00 108.88 53.00 C 109.49 53.00 110.00 52.56 110.00 52.03 C 110.00 51.50 109.21 51.32 108.25 51.63 C 106.82 52.08 106.77 52.00 107.95 51.16 C 109.81 49.84 109.93 49.93 114.83 56.27 C 117.59 59.86 119.48 63.72 120.59 68.04 C 121.49 71.57 123.20 75.69 124.37 77.18 C 126.64 80.07 129.47 80.81 130.40 78.75 C 130.71 78.06 130.83 78.40 130.67 79.50 C 130.51 80.60 129.86 81.39 129.23 81.26 C 128.58 81.13 128.32 81.68 128.64 82.51 C 129.54 84.85 128.57 84.27 126.18 81.03Z"/></g>
<g fill="#747173FF">
<path d="M 27.60 88.11 C 25.85 86.18 25.40 80.00 27.00 80.00 C 27.92 80.00 28.37 81.66 28.28 84.69 C 28.26 85.34 28.86 86.12 29.62 86.41 C 30.71 86.83 31.00 85.49 31.00 80.05 C 31.00 72.86 31.60 70.00 33.11 70.00 C 33.60 70.00 34.00 73.98 34.00 78.84 C 34.00 87.20 33.87 87.74 31.60 88.77 C 29.64 89.67 28.89 89.54 27.60 88.11Z"/></g>
<g fill="#747173FF">
<path d="M 72.76 39.82 C 72.44 38.98 69.66 36.87 66.59 35.14 C 63.51 33.40 61.00 31.46 61.00 30.82 C 61.00 30.19 60.71 29.95 60.36 30.31 C 59.59 31.08 54.00 27.93 54.00 26.73 C 54.00 26.26 53.55 26.16 52.99 26.50 C 52.44 26.85 51.72 26.43 51.39 25.57 C 51.06 24.71 50.39 24.26 49.90 24.56 C 49.40 24.87 49.00 24.57 49.00 23.89 C 49.00 23.22 48.70 22.97 48.33 23.34 C 47.96 23.71 46.60 23.31 45.30 22.46 C 44.00 21.61 42.39 21.25 41.72 21.65 C 40.86 22.17 40.89 21.91 41.80 20.78 C 43.30 18.93 42.62 18.64 57.00 27.15 C 62.23 30.24 68.35 33.83 70.60 35.13 C 73.86 37.01 74.57 37.90 74.03 39.43 C 73.47 41.01 73.25 41.08 72.76 39.82Z"/></g>
<g fill="#AD922EFF">
<path d="M 70.00 18.53 C 68.62 17.77 65.36 16.84 62.75 16.48 C 59.56 16.03 58.00 15.33 58.00 14.36 C 58.00 12.30 64.14 9.98 69.22 10.11 L 73.50 10.21 L 69.00 11.28 C 66.53 11.87 65.27 12.52 66.20 12.74 C 67.14 12.95 68.18 14.00 68.52 15.06 C 68.86 16.13 69.59 17.00 70.14 17.00 C 70.69 17.00 71.82 17.68 72.64 18.50 C 74.51 20.36 73.30 20.38 70.00 18.53Z"/></g>
<g fill="#453540FF">
<path d="M 82.00 129.04 C 83.38 127.98 84.59 126.30 84.70 125.31 C 84.81 124.31 85.02 122.47 85.16 121.21 C 85.50 118.38 89.08 114.88 89.73 116.75 C 89.97 117.44 91.03 118.00 92.08 118.00 C 93.14 118.00 94.00 118.27 94.00 118.61 C 94.00 119.71 81.80 131.00 80.64 130.98 C 80.01 130.97 80.62 130.09 82.00 129.04Z"/></g>
<g fill="#141311FF">
<path d="M 69.56 64.75 C 68.07 59.81 67.35 55.00 68.11 55.00 C 68.60 55.00 69.00 55.63 69.00 56.39 C 69.00 58.01 71.13 59.00 74.58 59.00 C 77.21 59.00 77.71 60.81 75.96 64.07 C 74.81 66.23 70.16 66.73 69.56 64.75Z"/></g>
<g fill="#747173FF">
<path d="M 69.64 86.30 C 68.61 81.01 69.53 73.84 71.36 72.82 C 72.94 71.94 73.06 72.55 72.79 80.10 C 72.50 88.43 70.73 91.91 69.64 86.30Z"/></g>
<g fill="#747173FF">
<path d="M 111.20 42.80 C 110.54 42.14 110.00 40.56 110.00 39.30 C 110.00 38.03 109.44 36.95 108.75 36.89 C 108.06 36.84 106.60 36.72 105.50 36.64 C 104.30 36.56 103.24 37.30 102.85 38.50 C 102.24 40.38 102.19 40.37 102.10 38.28 C 102.00 36.13 101.61 36.05 89.75 35.75 L 77.50 35.43 L 92.00 35.20 C 101.80 35.04 106.01 34.66 105.00 34.00 C 104.17 33.47 103.88 33.02 104.35 33.02 C 106.46 32.98 111.00 37.31 111.00 39.37 C 111.00 40.60 111.54 42.14 112.20 42.80 C 112.86 43.46 113.18 44.00 112.90 44.00 C 112.62 44.00 111.86 43.46 111.20 42.80Z"/></g>
<g fill="#5B57EDFF">
<path d="M 90.00 112.33 C 90.00 111.18 107.34 93.84 111.04 91.29 C 113.28 89.75 113.38 89.75 112.16 91.26 C 111.12 92.55 92.65 111.00 90.47 112.92 C 90.21 113.15 90.00 112.88 90.00 112.33Z"/></g>
<g fill="#9F2126FF">
<path d="M 21.73 83.25 C 18.26 79.42 16.89 70.97 18.90 65.82 C 20.02 62.95 27.05 54.71 27.76 55.43 C 28.05 55.71 26.67 57.73 24.69 59.92 C 18.68 66.58 17.63 75.72 22.23 81.56 C 24.53 84.49 24.12 85.89 21.73 83.25Z"/></g>
<g fill="#6F1C71FF">
<path d="M 76.44 128.49 C 78.36 127.02 78.36 127.00 76.44 126.94 C 74.56 126.88 74.56 126.85 76.50 126.01 C 77.60 125.54 79.81 123.99 81.41 122.57 C 85.03 119.36 86.22 119.30 85.04 122.40 C 84.54 123.72 84.39 125.05 84.71 125.37 C 85.42 126.09 83.10 129.00 81.82 129.00 C 81.30 129.00 81.14 128.58 81.46 128.07 C 81.77 127.56 81.51 126.81 80.86 126.41 C 80.17 125.99 79.96 126.12 80.34 126.75 C 80.72 127.35 79.60 128.27 77.75 128.89 C 74.78 129.88 74.67 129.85 76.44 128.49Z"/></g>
<g fill="#F8EA8CFF">
<path d="M 93.10 26.56 C 91.36 25.63 91.08 25.12 92.10 24.74 C 93.08 24.36 92.00 22.75 88.50 19.34 C 81.86 12.86 80.68 12.01 76.26 10.43 C 73.98 9.62 73.29 9.07 74.51 9.04 C 77.99 8.97 84.28 12.98 90.32 19.14 C 96.34 25.28 97.77 29.09 93.10 26.56Z"/></g>
<g fill="#453540FF">
<path d="M 40.00 38.11 C 40.00 36.16 39.59 35.85 37.54 36.24 C 35.43 36.64 35.22 36.45 36.05 34.91 C 37.21 32.73 38.84 31.65 41.50 31.28 C 42.96 31.07 43.13 31.23 42.15 31.87 C 41.09 32.56 41.30 33.10 43.15 34.39 C 45.40 35.97 45.53 35.95 46.15 33.77 C 46.72 31.80 46.80 31.76 46.83 33.50 C 46.85 34.60 46.47 36.40 46.00 37.50 C 45.27 39.21 45.13 39.25 45.07 37.75 C 44.97 35.35 43.42 35.56 41.56 38.22 L 40.00 40.45 L 40.00 38.11Z"/></g>
<g fill="#13B319FF">
<path d="M 118.78 52.50 C 115.64 49.59 114.45 49.38 113.60 51.61 C 113.09 52.92 112.69 52.99 111.49 51.99 C 109.10 50.01 109.62 47.00 112.35 47.00 C 114.69 47.00 116.79 48.50 120.40 52.76 C 122.93 55.73 122.13 55.61 118.78 52.50Z"/></g>
<g fill="#747173FF">
<path d="M 79.33 120.52 C 79.33 119.70 80.38 118.05 81.67 116.84 C 82.95 115.64 84.00 115.18 84.00 115.83 C 84.00 116.47 84.41 117.00 84.91 117.00 C 85.41 117.00 85.70 116.21 85.54 115.25 C 85.20 113.13 86.87 110.80 88.16 111.60 C 88.71 111.94 88.62 112.76 87.93 113.59 C 87.02 114.68 87.04 115.00 88.00 115.00 C 88.99 115.00 88.99 115.30 88.00 116.50 C 87.32 117.33 86.11 118.00 85.32 118.00 C 84.53 118.00 84.14 118.42 84.46 118.93 C 84.77 119.44 84.51 120.19 83.86 120.59 C 83.13 121.04 82.96 120.88 83.40 120.15 C 84.42 118.51 82.96 118.72 81.00 120.50 C 79.53 121.83 79.33 121.83 79.33 120.52Z"/></g>
<g fill="#141311FF">
<path d="M 45.39 36.26 C 44.42 34.71 44.07 34.68 42.40 35.96 C 40.94 37.07 40.79 37.08 41.74 36.02 C 42.72 34.91 42.69 34.31 41.56 33.06 C 40.41 31.78 40.38 31.18 41.43 29.76 C 42.64 28.11 42.78 28.11 44.22 29.76 C 45.45 31.19 47.52 38.00 46.72 38.00 C 46.59 38.00 45.99 37.22 45.39 36.26Z"/></g>
<g fill="#27218DFF">
<path d="M 92.33 118.21 C 89.61 117.80 88.66 115.52 90.56 113.95 C 91.71 112.99 92.00 113.08 92.00 114.38 C 92.00 116.84 95.06 116.32 98.18 113.32 C 99.72 111.85 101.17 110.84 101.40 111.07 C 101.63 111.31 100.17 113.08 98.16 115.02 C 95.77 117.31 93.75 118.42 92.33 118.21Z"/></g>
<g fill="#E15EDEFF">
<path d="M 35.55 110.98 C 31.79 107.14 29.14 104.00 29.64 104.00 C 30.89 104.00 43.51 116.82 42.88 117.45 C 42.60 117.73 39.30 114.82 35.55 110.98Z"/></g>
<g fill="#A2F8A2FF">
<path d="M 131.23 63.76 C 130.56 61.90 126.97 57.30 123.25 53.52 L 116.50 46.66 L 122.31 51.50 C 128.00 56.24 133.53 63.91 132.81 66.06 C 132.62 66.65 131.90 65.62 131.23 63.76Z"/></g>
<g fill="#453540FF">
<path d="M 120.00 91.28 C 121.56 89.29 121.98 87.73 121.56 85.49 C 121.08 82.91 121.30 82.43 122.97 82.43 C 124.06 82.43 125.16 82.98 125.42 83.66 C 125.68 84.34 125.36 84.69 124.70 84.44 C 123.94 84.15 123.46 85.11 123.39 87.04 C 123.33 88.74 122.35 90.95 121.18 92.04 C 118.15 94.87 117.50 94.45 120.00 91.28Z"/></g>
<g fill="#A49FA2FF">
<path d="M 34.00 78.06 C 34.00 70.79 33.01 67.91 31.66 71.25 C 31.30 72.15 31.14 72.17 31.08 71.31 C 30.97 69.70 32.97 68.57 34.02 69.64 C 35.23 70.87 36.02 84.87 34.92 85.55 C 34.39 85.88 34.00 82.69 34.00 78.06Z"/></g>
<g fill="#E15EDEFF">
<path d="M 63.00 125.30 C 61.05 124.59 56.00 119.88 56.00 118.77 C 56.00 118.30 57.24 119.08 58.75 120.49 C 60.26 121.90 63.52 123.69 66.00 124.46 C 69.91 125.68 70.11 125.86 67.50 125.85 C 65.85 125.85 63.83 125.60 63.00 125.30Z"/></g>
<g fill="#6BE16EFF">
<path d="M 131.06 65.82 C 130.26 63.13 127.61 59.28 123.66 55.06 C 120.29 51.45 119.05 49.85 120.92 51.50 C 127.14 57.00 129.94 60.46 131.62 64.77 C 132.54 67.12 133.07 69.26 132.80 69.53 C 132.54 69.80 131.76 68.13 131.06 65.82Z"/></g>
<g fill="#6F1C71FF">
<path d="M 69.00 134.00 C 69.83 133.47 71.67 133.02 73.10 133.02 C 74.52 133.01 76.50 132.10 77.50 131.00 C 79.82 128.44 81.39 128.41 80.02 130.96 C 79.00 132.88 73.44 135.00 69.50 134.98 C 67.84 134.97 67.76 134.80 69.00 134.00Z"/></g>
<g fill="#E6D05AFF">
<path d="M 84.00 16.18 C 84.00 14.54 75.97 10.92 70.31 10.01 L 64.50 9.08 L 70.30 9.47 C 74.20 9.74 77.55 10.72 80.55 12.47 C 84.31 14.68 86.33 17.00 84.50 17.00 C 84.22 17.00 84.00 16.63 84.00 16.18Z"/></g>
<g fill="#E6D05AFF">
<path d="M 92.47 26.05 C 93.03 25.15 92.71 24.95 91.38 25.35 C 90.34 25.66 88.38 25.27 87.00 24.48 C 84.53 23.06 84.54 23.05 87.91 23.68 C 91.65 24.38 91.61 23.78 87.60 19.00 C 86.00 17.09 86.29 17.20 88.84 19.50 C 93.06 23.30 94.39 25.64 92.85 26.59 C 92.10 27.06 91.96 26.87 92.47 26.05Z"/></g>
<g fill="#27218DFF">
<path d="M 101.45 98.25 C 105.26 94.30 108.62 91.28 108.89 91.56 C 109.17 91.83 107.17 94.10 104.45 96.60 C 95.21 105.06 94.48 105.46 101.45 98.25Z"/></g>
<g fill="#6D69BDFF">
<path d="M 103.07 110.15 C 107.16 105.83 111.17 101.98 112.00 101.60 C 112.83 101.21 109.68 104.75 105.02 109.45 C 100.36 114.15 96.34 118.00 96.09 118.00 C 95.84 118.00 98.98 114.47 103.07 110.15Z"/></g>
<g fill="#A2F8A2FF">
<path d="M 118.67 74.33 C 118.30 73.97 118.00 72.28 117.99 70.58 C 117.99 68.89 117.09 66.15 116.00 64.50 C 114.91 62.85 114.01 61.06 114.01 60.52 C 113.99 57.77 118.77 67.10 119.25 70.75 C 119.83 75.16 119.78 75.45 118.67 74.33Z"/></g>
<g fill="#453540FF">
<path d="M 79.25 32.26 C 81.86 32.06 86.14 32.06 88.75 32.26 C 91.36 32.47 89.22 32.64 84.00 32.64 C 78.78 32.64 76.64 32.47 79.25 32.26Z"/></g>
<g fill="#A49FA2FF">
<path d="M 85.56 87.78 C 84.70 86.56 84.00 84.98 84.00 84.28 C 84.00 82.22 81.28 82.81 80.71 85.00 C 80.42 86.10 79.58 86.96 78.84 86.92 C 77.83 86.86 77.81 86.72 78.75 86.34 C 79.44 86.06 80.00 85.22 80.00 84.48 C 80.00 82.59 81.66 81.76 83.96 82.49 C 85.07 82.84 85.67 83.69 85.37 84.47 C 85.08 85.23 85.78 86.78 86.92 87.92 C 88.07 89.07 88.58 90.00 88.06 90.00 C 87.54 90.00 86.41 89.00 85.56 87.78Z"/></g>
<g fill="#CF0E6CFF">
<path d="M 26.00 97.50 C 26.00 95.63 26.90 95.62 31.14 97.46 L 34.50 98.92 L 30.25 98.96 C 27.12 98.99 26.00 98.60 26.00 97.50Z"/></g>
<g fill="#B028ACFF">
<path d="M 30.50 104.23 C 29.95 103.82 28.48 102.33 27.24 100.91 L 24.97 98.34 L 28.05 98.79 C 30.28 99.12 30.96 99.66 30.54 100.75 C 30.23 101.58 30.48 102.87 31.11 103.63 C 32.35 105.13 32.08 105.40 30.50 104.23Z"/></g>
<g fill="#453540FF">
<path d="M 82.25 44.75 C 82.73 43.29 87.67 41.34 88.58 42.25 C 89.82 43.49 87.89 45.16 86.53 44.02 C 85.57 43.23 85.08 43.35 84.65 44.47 C 83.95 46.29 81.65 46.56 82.25 44.75Z"/></g>
<g fill="#3CCF43FF">
<path d="M 129.46 63.88 C 129.06 62.63 126.45 59.11 123.65 56.05 L 118.56 50.50 L 123.36 55.00 C 128.01 59.36 131.65 64.68 130.67 65.67 C 130.40 65.93 129.86 65.13 129.46 63.88Z"/></g>
<g fill="#A49FA2FF">
<path d="M 61.14 82.25 C 61.06 78.26 61.34 75.00 61.75 75.00 C 62.16 75.00 62.37 77.36 62.21 80.25 C 61.73 89.05 61.28 89.88 61.14 82.25Z"/></g>
<g fill="#9F2126FF">
<path d="M 29.00 54.46 C 29.00 53.88 31.02 51.43 33.50 49.00 C 35.98 46.57 38.00 44.86 38.00 45.21 C 38.00 45.55 35.98 48.01 33.50 50.66 C 31.02 53.32 29.00 55.03 29.00 54.46Z"/></g>
<g fill="#9F2126FF">
<path d="M 30.25 97.34 C 29.56 97.06 29.00 96.20 29.00 95.42 C 29.00 94.64 28.60 94.00 28.12 94.00 C 27.63 94.00 26.49 92.88 25.59 91.50 C 23.27 87.96 23.96 88.36 29.00 93.50 C 33.10 97.67 33.40 98.61 30.25 97.34Z"/></g>
<g fill="#9F2126FF">
<path d="M 22.99 96.62 C 22.17 95.96 19.93 93.64 18.00 91.46 L 14.50 87.50 L 17.98 90.50 C 19.90 92.15 21.70 93.76 21.98 94.09 C 22.27 94.41 23.35 95.13 24.38 95.70 C 25.41 96.26 25.86 96.97 25.37 97.27 C 24.88 97.58 23.81 97.28 22.99 96.62Z"/></g>
<g fill="#141311FF">
<path d="M 123.42 86.75 C 123.51 84.15 124.75 82.97 126.63 83.69 C 127.66 84.08 127.57 84.71 126.22 86.57 C 124.05 89.55 123.32 89.60 123.42 86.75Z"/></g>
<g fill="#6D69BDFF">
<path d="M 113.00 89.39 C 113.00 88.84 114.58 86.87 116.50 85.00 C 118.42 83.13 120.00 82.06 120.00 82.61 C 120.00 83.16 118.42 85.13 116.50 87.00 C 114.58 88.87 113.00 89.94 113.00 89.39Z"/></g>
<g fill="#3CCF43FF">
<path d="M 131.16 72.00 C 131.16 67.16 131.28 66.83 132.16 69.25 C 132.83 71.09 132.83 72.91 132.16 74.75 C 131.28 77.17 131.16 76.84 131.16 72.00Z"/></g>
<g fill="#A49FA2FF">
<path d="M 108.34 82.00 C 108.34 77.88 108.51 76.19 108.73 78.25 C 108.94 80.31 108.94 83.69 108.73 85.75 C 108.51 87.81 108.34 86.12 108.34 82.00Z"/></g>
<g fill="#747173FF">
<path d="M 84.73 39.28 C 86.50 39.06 89.65 39.05 91.73 39.27 C 93.80 39.49 92.35 39.67 88.50 39.67 C 84.65 39.68 82.95 39.50 84.73 39.28Z"/></g>
<g fill="#A49FA2FF">
<path d="M 39.41 85.62 C 39.12 84.87 39.05 82.05 39.26 79.37 L 39.64 74.50 L 39.82 80.17 C 39.93 83.62 40.49 86.03 41.25 86.34 C 42.23 86.73 42.22 86.86 41.22 86.92 C 40.51 86.96 39.70 86.38 39.41 85.62Z"/></g>
<g fill="#CBC0C7FF">
<path d="M 29.00 39.50 C 32.54 35.92 35.67 33.00 35.94 33.00 C 36.22 33.00 33.54 35.92 30.00 39.50 C 26.46 43.08 23.33 46.00 23.06 46.00 C 22.78 46.00 25.46 43.08 29.00 39.50Z"/></g>
<g fill="#A49FA2FF">
<path d="M 56.00 85.07 C 56.00 83.10 55.14 81.47 53.37 80.07 C 51.92 78.93 51.20 78.00 51.78 78.00 C 53.78 78.00 57.85 83.87 57.30 85.97 C 56.54 88.86 56.00 88.48 56.00 85.07Z"/></g>
<g fill="#E6D05AFF">
<path d="M 77.32 20.67 C 73.42 19.23 71.51 17.45 75.00 18.51 C 79.45 19.86 82.00 20.94 82.00 21.48 C 82.00 22.20 81.00 22.03 77.32 20.67Z"/></g>
<g fill="#6BE16EFF">
<path d="M 128.66 82.56 C 128.34 81.71 128.56 81.13 129.16 81.26 C 129.75 81.39 130.85 79.70 131.60 77.50 C 132.87 73.77 132.93 73.72 132.49 76.81 C 132.24 78.64 131.40 81.02 130.64 82.11 C 129.47 83.78 129.16 83.85 128.66 82.56Z"/></g>
<g fill="#CBC0C7FF">
<path d="M 90.50 57.94 C 92.70 57.49 95.62 57.14 97.00 57.17 C 98.60 57.21 98.07 57.53 95.50 58.06 C 93.30 58.51 90.38 58.86 89.00 58.83 C 87.40 58.79 87.93 58.47 90.50 57.94Z"/></g>
<g fill="#6D69BDFF">
<path d="M 94.00 104.50 C 96.99 101.47 99.66 99.00 99.93 99.00 C 100.21 99.00 97.99 101.47 95.00 104.50 C 92.01 107.53 89.34 110.00 89.07 110.00 C 88.79 110.00 91.01 107.53 94.00 104.50Z"/></g>
<g fill="#C05E64FF">
<path d="M 33.78 47.41 C 34.95 45.71 36.68 43.69 37.62 42.91 C 39.16 41.63 39.23 41.69 38.26 43.50 C 37.67 44.60 35.94 46.62 34.41 48.00 L 31.64 50.50 L 33.78 47.41Z"/></g>
<g fill="#453540FF">
<path d="M 83.35 50.20 C 82.61 49.46 82.01 48.33 82.03 47.68 C 82.05 47.03 82.52 47.29 83.08 48.25 C 83.64 49.21 84.95 50.00 85.99 50.00 C 87.03 50.00 88.14 50.42 88.46 50.94 C 89.35 52.38 84.88 51.73 83.35 50.20Z"/></g>
<g fill="#E15EDEFF">
<path d="M 51.20 114.70 C 47.58 110.97 46.76 108.68 50.30 112.21 C 53.01 114.90 55.42 118.00 54.82 118.00 C 54.58 118.00 52.95 116.52 51.20 114.70Z"/></g>
</svg>
